<?xml version="1.0" encoding="utf-8"?>
<!-- Generator: Adobe Illustrator 16.0.0, SVG Export Plug-In . SVG Version: 6.00 Build 0)  -->
<!DOCTYPE svg PUBLIC "-//W3C//DTD SVG 1.1//EN" "http://www.w3.org/Graphics/SVG/1.1/DTD/svg11.dtd">
<svg version="1.1" id="Layer_1" xmlns="http://www.w3.org/2000/svg" xmlns:xlink="http://www.w3.org/1999/xlink" x="0px" y="0px"
	 width="152.465px" height="105.904px" viewBox="0 0 152.465 105.904" enable-background="new 0 0 152.465 105.904"
	 xml:space="preserve">
<g>
	<g>
		<g>
			<path fill="#066DA5" d="M149.287,40.316c-3.438-2.3-11.338-3.144-17.416-1.997c-0.782-5.726-3.975-10.691-9.778-15.179
				l-3.338-2.226l-2.228,3.34c-2.853,4.3-4.274,10.257-3.81,15.968c0.209,2.01,0.869,5.603,2.938,8.764
				c-2.065,1.11-6.149,2.64-11.532,2.537H0.589l-0.204,1.191c-0.973,5.74-0.952,23.653,10.679,37.421
				c8.84,10.463,22.094,15.771,39.392,15.771c37.499,0,65.245-17.263,78.237-48.642c5.107,0.103,16.107,0.028,21.76-10.767
				c0.146-0.248,0.486-0.896,1.473-2.941l0.541-1.121L149.287,40.316z M67.63,14.313h15.741V0H67.63V14.313z M67.63,31.487h15.741
				V17.176H67.63V31.487z M49.025,31.487h15.743V17.176H49.025V31.487z M30.42,31.487h15.743V17.176H30.42V31.487z M11.815,48.659
				h15.743V34.348H11.815V48.659z M30.42,48.659h15.743V34.348H30.42V48.659z M49.025,48.659h15.743V34.348H49.025V48.659z
				 M67.63,48.659h15.741V34.348H67.63V48.659z M86.235,48.659h15.744V34.348H86.235V48.659z"/>
		</g>
	</g>
	<g>
		<g>
			<path fill="#006EA5" d="M98.418,100.705c0,1.116-0.875,1.991-2.017,1.991c-1.127,0-2.024-0.875-2.024-1.991
				c0-1.091,0.897-1.967,2.024-1.967C97.543,98.739,98.418,99.615,98.418,100.705 M94.879,100.705c0,0.876,0.647,1.571,1.535,1.571
				c0.864,0,1.5-0.695,1.5-1.56c0-0.875-0.636-1.582-1.513-1.582C95.529,99.135,94.879,99.842,94.879,100.705 M96.092,101.738
				h-0.457v-1.967c0.182-0.036,0.434-0.062,0.756-0.062c0.373,0,0.539,0.062,0.686,0.146c0.105,0.083,0.189,0.239,0.189,0.432
				c0,0.216-0.168,0.384-0.406,0.455v0.024c0.191,0.071,0.301,0.216,0.359,0.479c0.061,0.301,0.096,0.42,0.145,0.492h-0.492
				c-0.059-0.072-0.096-0.252-0.156-0.48c-0.035-0.216-0.153-0.312-0.406-0.312h-0.217V101.738L96.092,101.738z M96.104,100.622
				h0.217c0.252,0,0.455-0.084,0.455-0.288c0-0.18-0.133-0.3-0.42-0.3c-0.119,0-0.203,0.013-0.252,0.022V100.622z"/>
		</g>
	</g>
</g>
</svg>
