<?xml version="1.0" encoding="utf-8"?>
<!-- Generator: Adobe Illustrator 16.0.0, SVG Export Plug-In . SVG Version: 6.00 Build 0)  -->
<!DOCTYPE svg PUBLIC "-//W3C//DTD SVG 1.1//EN" "http://www.w3.org/Graphics/SVG/1.1/DTD/svg11.dtd">
<svg version="1.1" id="Layer_1" xmlns="http://www.w3.org/2000/svg" xmlns:xlink="http://www.w3.org/1999/xlink" x="0px" y="0px"
	 width="599.999px" height="599.978px" viewBox="6.339 77.103 599.999 599.978"
	 enable-background="new 6.339 77.103 599.999 599.978" xml:space="preserve">
<g>
	<path fill="#FFFFFF" d="M595.02,350.372L333.065,88.417c-15.087-15.087-39.554-15.087-54.65,0l-54.392,54.405l68.997,69.007
		c16.037-5.42,34.421-1.786,47.199,10.999c12.861,12.861,16.464,31.411,10.91,47.505l66.507,66.5
		c16.102-5.547,34.657-1.958,47.506,10.91c17.956,17.957,17.956,47.053,0,65.021c-17.969,17.963-47.065,17.963-65.041,0
		c-13.506-13.512-16.847-33.362-9.998-49.998l-62.031-62.024v163.22c4.375,2.162,8.513,5.051,12.147,8.691
		c17.956,17.956,17.956,47.053,0,65.034c-17.956,17.943-47.068,17.943-65.012,0c-17.957-17.988-17.957-47.085,0-65.028
		c4.441-4.438,9.581-7.792,15.064-10.036v-164.75c-5.484-2.245-10.61-5.567-15.064-10.037c-13.601-13.595-16.873-33.56-9.896-50.266
		l-68.025-68.031L17.657,349.147c-15.09,15.105-15.09,39.572,0,54.659L279.63,665.761c15.084,15.093,39.548,15.093,54.647,0
		l260.735-260.736C610.112,389.938,610.112,365.458,595.02,350.372z"/>
</g>
</svg>
