<?xml version="1.0" encoding="utf-8"?>
<!-- Generator: Adobe Illustrator 16.0.0, SVG Export Plug-In . SVG Version: 6.00 Build 0)  -->
<!DOCTYPE svg PUBLIC "-//W3C//DTD SVG 1.1//EN" "http://www.w3.org/Graphics/SVG/1.1/DTD/svg11.dtd">
<svg version="1.1" id="Layer_1" xmlns="http://www.w3.org/2000/svg" xmlns:xlink="http://www.w3.org/1999/xlink" x="0px" y="0px"
	 width="2499.027px" height="704px" viewBox="2.638 180.818 2499.027 704" enable-background="new 2.638 180.818 2499.027 704"
	 xml:space="preserve">
<g>
	<path fill="#6BA0AB" d="M716.642,455.812l0.006-0.03l-19.969,70.757L716.642,455.812z M819.324,609.419l-21.999-0.126
		L819.324,609.419z M813.666,715.092h0.021l-131.81,0.48L813.666,715.092z M841.304,609.546l-22.01-0.127L841.304,609.546z
		 M825.22,706.11l22.959-87.562l-22.959,87.583V706.11L825.22,706.11z M1310.519,302.858l-42.766,201.071L1310.519,302.858z
		 M1200.572,302.858l-32.471,150.207l32.471-150.222V302.858z"/>
	<path fill="#6BA0AB" d="M1303.194,293.811h-91.463c-5.071,0-10.108,4.071-11.194,9.032l-32.471,150.217l-32.472,150.222
		c-1.076,4.961-6.107,9.018-11.179,9.018h-64.735c-64.048,0-56.638-44.307-43.519-104.986l0.394-1.833l1.439-7.648
		c0.086-0.495,0.188-0.99,0.269-1.439l2.924-15.574l3.133-16.695c0.954-5.031,2.399-12.391,3.344-17.013l14.761-72.121
		l14.771-72.125c1.021-4.971-2.313-9.057-7.386-9.057h-93.882c-5.077,0-10.104,4.086-11.139,9.047l-20.187,95.767l-20.181,95.757
		c-0.02,0.04-0.025,0.106-0.03,0.146l-1.879,8.901c-23.252,106.152-17.084,207.369,109.274,210.537
		c2.066,0.065,3.668,0.08,3.668,0.08h198.348c5.071,0,10.098-4.076,11.158-9.047l42.776-201.056l42.771-201.076
		C1311.56,297.882,1308.266,293.815,1303.194,293.811z M1668.061,613.345c5.082,0,8.405,4.081,7.385,9.037l-8.885,43.418
		 M1657.694,709.232l8.876-43.438l-8.881,43.448L1657.694,709.232z M1646.556,718.36l0.041-0.01
		c-26.909,0.217-107.795,0.828-168.59,0.828C1551.991,719.184,1646.551,718.36,1646.556,718.36z M1423.445,557.439
		c-0.08-4.749,5.34-12.942,10.416-12.942l-11.441-0.187C1417.288,596.068,1423.445,557.439,1423.445,557.439z"/>
	<path fill="#6BA0AB" d="M1486.342,719.174c-0.581,0-1.182,0-1.783,0.01C1485.16,719.174,1485.761,719.174,1486.342,719.174z
		 M1668.061,613.345c5.082,0,8.405,4.081,7.385,9.037l-8.885,43.418l-1.445,7.077 M1529.648,719.058h-0.368H1529.648z
		 M1507.189,719.133h-1.318H1507.189z M1500.34,719.153c-0.737,0-1.445,0-2.157,0.021
		C1498.895,719.153,1499.603,719.153,1500.34,719.153z M1493.369,719.174h-1.89H1493.369z M1505.881,719.133l-5.541,0.011
		L1505.881,719.133z M1646.622,718.355c-19.722,0.151-68.434,0.525-117.009,0.728
		C1578.158,718.886,1626.886,718.507,1646.622,718.355z M1657.694,709.247l7.441-36.365l-7.446,36.396L1657.694,709.247
		L1657.694,709.247z M1498.198,719.174h-4.829H1498.198z M1484.554,719.184h-6.526H1484.554z M1491.459,719.174h-5.147H1491.459z
		 M153.589,558.525l14.205-62.978l-16.241,71.994l-15.589,73.333l13.664-64.28C150.675,571.614,152.468,563.48,153.589,558.525
		L153.589,558.525z M323.629,292.75H223.189c-5.082,0-10.148,4.057-11.28,9.002l-9.522,42.039l-9.522,42.054
		c-1.122,4.945,2.111,9.002,7.198,9.002h101.222c5.072,0,10.118-4.057,11.209-9.017l9.204-42.039l9.204-42.008v-0.01
		C331.979,296.806,328.715,292.75,323.629,292.75L323.629,292.75z M301.771,432.591v-0.01l-29.46,136.284L301.771,432.591z
		 M9.985,884.166c0,0,50.631,0.652,82.82,0.652c-24.45,0-64.826-0.455-82.86-0.662l0.051,0.01H9.985z M181.994,432.57l-14.22,62.978
		L181.994,432.57z"/>
	<path fill="#6BA0AB" d="M294.507,423.559H193.269c-5.077,0-10.148,4.057-11.27,9.018l-14.22,62.982l-14.205,62.982
		c-1.122,4.95-2.91,13.093-3.96,18.054l-13.664,64.28l-13.654,64.301c-1.061,4.945-3.243,12.957-4.87,17.787
		c0,0-18.908,56.273-50.708,55.627c-1.323-0.018-2.647-0.042-3.97-0.07c-15.402-0.304-27.511-0.521-27.511-0.521h-0.02
		c-5.067-0.086-10.164,3.895-11.351,8.805l-10.497,44.13L2.882,875.038c-1.177,4.94,2.005,8.992,7.052,9.083
		c18.029,0.223,58.411,0.691,82.86,0.691c79.42,0,121.282-44.023,148.121-170.625l31.41-145.337l29.461-136.285
		C302.857,427.62,299.573,423.559,294.507,423.559L294.507,423.559z M1732.568,714.026c-5.077,0-8.351-4.071-7.279-9.042
		l76.151-356.708 M1838.402,704.974l30.819-152.258L1838.402,704.974z"/>
	<path fill="#6BA0AB" d="M1726.37,709.516c-0.621-2.486-0.258-8.583,0.818-13.559l36.144-169.316l-38.073,178.344
		c-1.071,4.971,2.213,9.052,7.27,9.052h9.249C1736.726,714.036,1726.981,712,1726.37,709.516z M1832.381,712.001
		c-2.763,1.116-9.184,2.025-14.271,2.025h9.25c5.076,0,10.062-4.071,11.052-9.053l1.829-9.052
		C1839.251,700.897,1835.154,710.869,1832.381,712.001L1832.381,712.001z M1853.82,628.848l13.578-67.195
		c-0.005,0.04-0.011,0.105-0.025,0.131L1853.82,628.848L1853.82,628.848z M2154.31,372.17l4.198,17.331
		c1.156,4.961-2.052,8.987-7.118,9.002 M1840.252,695.927l13.578-67.074L1840.252,695.927z M2150.137,354.419l4.152,17.756
		L2150.137,354.419z M1867.408,561.657c1.011-4.971,2.678-13.028,3.738-17.968l14.518-68.014l-16.452,77.051L1867.408,561.657z
		 M1802.663,342.432c-1.015,4.799-2.304,10.86-3.188,14.877l-36.113,169.332l38.073-178.359L1802.663,342.432z"/>
	<path fill="#6BA0AB" d="M2158.477,389.501l-4.192-17.331l-4.152-17.756l-2.102-8.987c-8.224-31.945-32.34-50.384-84.749-50.384
		l-81.598-0.091l-75.141-0.086h-84.583c-5.077,0-10.104,4.056-11.148,9.032l-3.733,17.67l-4.4,20.863l-1.228,5.844l-38.073,178.359
		l-36.139,169.317c-1.075,4.965-1.439,11.062-0.823,13.553c0.611,2.495,10.356,4.526,15.463,4.526h76.283
		c5.082,0,11.508-0.93,14.271-2.036c2.769-1.126,6.85-11.093,7.875-16.079l13.579-67.074l13.573-67.054
		c0.005-0.03,0.01-0.091,0.025-0.11l1.809-8.946l16.447-77.036l14.528-68.054c1.076-4.945,6.077-8.987,11.144-9.002l240.038-0.116
		C2156.432,398.493,2159.639,394.462,2158.477,389.501L2158.477,389.501z"/>
	<path fill="#6BA0AB" d="M2467.474,232.778c-5.082,0.036-13.387,0.066-18.469,0.066h-76.833c-5.077,0-11.583,3.435-14.428,7.628
		l-169.883,248.883c-2.874,4.203-6.167,3.577-7.269-1.368l-12.503-54.835c-1.151-4.955-6.213-9.002-11.285-9.002h-109.214
		c-5.087,0-8.103,3.986-6.708,8.871l48.939,171.438c1.374,4.885,1.495,12.932,0.237,17.821l-21.349,82.981
		c-1.272,4.926,1.859,8.946,6.937,8.946h107.94c5.077,0,10.265-4.026,11.527-8.946l21.338-82.981
		c1.258-4.92,4.789-12.27,7.87-16.321l275.809-366.033c3.056-4.057,1.399-7.36-3.673-7.325L2467.474,232.778L2467.474,232.778z
		 M1599.805,447.493l-0.011-0.106c-0.637,5.512-5.743,9.558-10.815,9.558h-138.441c-4.789,0-7.249-3.259-6.521-7.27
		c0.04-0.116,0.065-0.217,0.111-0.318c0,0-0.046,0.011-0.106,0.046c0.046-0.162,0.046-0.309,0.096-0.465
		c0,0,0.283-0.975,0.627-2.354c13.225-35.159,40.164-58.234,90.806-58.234C1592.551,388.34,1603.679,416.184,1599.805,447.493
		L1599.805,447.493z M1559.18,287.668c-177.737,0-219.847,107.88-243.473,216.766c-23.642,110.987-21.596,214.75,162.32,214.75
		h6.526c0.581-0.01,1.177-0.01,1.763-0.01h11.887c0.732-0.021,1.409-0.021,2.151-0.021l5.562-0.01h1.303
		c7.265-0.011,14.665-0.051,22.061-0.076h0.368c48.561-0.192,97.287-0.551,117.009-0.718c5.041-0.096,9.997-4.142,11.037-9.077
		l7.446-36.396l1.449-7.072l8.881-43.413c1.025-4.966-2.299-9.047-7.38-9.047H1502.76c-65.771,0-85.301-17.474-78.107-68.848
		h264.311l-0.025,0.03c0.066,0,0.122-0.03,0.183-0.03c4.197-0.096,8.082-2.97,9.623-6.84c0.293-0.737,0.525-1.516,0.642-2.313
		l-0.03,0.03C1738.564,387.364,1727.3,287.673,1559.18,287.668L1559.18,287.668z M719.143,446.927l-2.501,8.855l-0.005,0.03
		l-19.958,70.727l-19.949,70.717c-1.379,4.885-6.657,8.891-11.75,8.891H559.343c-80.128,0-99.637-62.67-80.128-155.112
		c19.505-94.544,57.76-153.324,136.619-159.27C723.607,283.632,745.168,359.435,719.143,446.927L719.143,446.927z M791.592,600.7
		c0,0,49.803-120.923,61.113-190.78c15.487-93.499-31.33-229.102-212.154-229.102c-179.804,0-257.875,129.465-287.669,270.206
		c-29.789,141.762,9.239,266.074,188.013,265.068l141.028-0.525l131.814-0.484c5.077-0.041,10.265-4.071,11.562-8.972l22.96-87.583
		c1.277-4.915-1.829-8.957-6.9-8.977l-22.005-0.116l-21.999-0.116c-4.314-0.046-6.789-2.834-6.265-6.532
		c0.09-0.707,0.271-1.399,0.536-2.061h-0.035V600.7L791.592,600.7z"/>
	<path fill="#6BA0AB" d="M1681.634,519.765c0,3.345-2.713,6.067-6.062,6.067c-3.345,0-6.057-2.723-6.057-6.067
		c0-3.344,2.712-6.046,6.057-6.046C1678.921,513.713,1681.634,516.416,1681.634,519.765z"/>
</g>
</svg>
