<?xml version="1.0" encoding="utf-8"?>
<!-- Generator: Adobe Illustrator 16.0.0, SVG Export Plug-In . SVG Version: 6.00 Build 0)  -->
<!DOCTYPE svg PUBLIC "-//W3C//DTD SVG 1.1//EN" "http://www.w3.org/Graphics/SVG/1.1/DTD/svg11.dtd">
<svg version="1.1" id="Layer_1" xmlns="http://www.w3.org/2000/svg" xmlns:xlink="http://www.w3.org/1999/xlink" x="0px" y="0px"
	 width="177.306px" height="121.345px" viewBox="88.475 84.932 177.306 121.345"
	 enable-background="new 88.475 84.932 177.306 121.345" xml:space="preserve">
<path fill="#FB503B" d="M265.084,141.614c-1.193-1.316-17.404-21.641-20.284-25.097s-4.237-2.839-6.007-2.551
	s-22.299,3.703-24.686,4.114c-2.387,0.411-3.867,1.357-2.428,3.415c1.316,1.811,14.812,20.983,17.773,25.179l-53.691,12.878
	l-42.624-71.383c-1.687-2.51-2.057-3.415-5.924-3.209c-3.868,0.165-33.49,2.633-35.589,2.798c-2.098,0.165-4.443,1.111-2.304,6.089
	c2.098,4.979,35.753,77.472,36.699,79.57s3.374,5.513,9.093,4.155c5.842-1.398,26.125-6.706,37.193-9.586
	c5.842,10.615,17.815,32.092,19.996,35.178c2.962,4.113,4.978,3.414,9.504,2.057c3.538-1.07,55.296-19.666,57.642-20.654
	c2.345-0.945,3.785-1.646,2.18-3.99c-1.151-1.729-14.811-19.996-21.97-29.582c4.896-1.316,22.3-5.924,24.192-6.459
	C265.988,144,266.276,142.93,265.084,141.614z M167.493,161.568c-0.658,0.123-30.693,7.323-32.297,7.693s-1.604,0.164-1.769-0.37
	c-0.165-0.535-35.753-73.893-36.247-74.798c-0.494-0.905-0.452-1.646,0-1.646c0.453,0,28.389-2.51,29.376-2.551
	c0.987-0.041,0.864,0.165,1.234,0.782c0,0,39.374,67.968,40.073,69.161C168.562,161.074,168.151,161.444,167.493,161.568z
	 M252.288,177.449c0.493,0.74,0.946,1.234-0.535,1.77c-1.522,0.534-50.894,17.197-51.84,17.609c-0.946,0.41-1.728,0.534-2.962-1.234
	c-1.234-1.77-17.28-29.582-17.28-29.582l52.333-13.619c1.317-0.411,1.729-0.699,2.552,0.617S251.795,176.709,252.288,177.449z
	 M255.621,140.297c-1.193,0.247-20.407,5.019-20.407,5.019l-15.717-21.559c-0.452-0.617-0.823-1.234,0.288-1.399
	s18.967-3.374,19.748-3.538c0.823-0.165,1.523-0.412,2.51,0.946c0.988,1.358,14.564,18.556,15.1,19.214
	S256.813,140.05,255.621,140.297z"/>
</svg>
