<?xml version="1.0" encoding="utf-8"?>
<!-- Generator: Adobe Illustrator 16.0.0, SVG Export Plug-In . SVG Version: 6.00 Build 0)  -->
<!DOCTYPE svg PUBLIC "-//W3C//DTD SVG 1.1//EN" "http://www.w3.org/Graphics/SVG/1.1/DTD/svg11.dtd">
<svg version="1.1" id="Layer_1" xmlns="http://www.w3.org/2000/svg" xmlns:xlink="http://www.w3.org/1999/xlink" x="0px" y="0px"
	 width="1680.423px" height="416.667px" viewBox="319.258 343.996 1680.423 416.667"
	 enable-background="new 319.258 343.996 1680.423 416.667" xml:space="preserve">
<path fill="#010101" d="M796.72,546.246v-0.008V546.246z M1940.178,649.917l0.579,0.009c34.43,0,58.658-23.854,58.921-57.992
	c0.129-16.904-4.754-32.379-13.75-43.559c-9.513-11.833-22.829-18.142-38.517-18.267h-0.312c-21.171,0-40.829,16.062-60.1,49.112
	l-1.534,2.638l-0.983-2.875c-4.866-14.162-9.199-25.962-11.791-33.024c-1.816-4.926-2.617-7.138-2.809-7.854
	c-0.925-3.575-3.979-5.796-7.987-5.796c-2.463,0-5.079,0.838-7.554,2.412c-2.455,1.562-3.825,3.472-4.317,6.021l-0.125,0.383
	c-19.287,60.154-35.188,89.358-48.662,89.358c-1.958-0.017-3.492-0.654-4.634-1.929c-3.529-3.9-2.662-13.175-1.462-26.017
	c0.879-9.434,1.883-20.112,1.466-31.446c-0.791-21.787-12.716-34.871-31.879-35.013c-24.358-0.008-40.142,25.934-47.412,41.396
	l-2.171,4.608l-0.479-5.084c-1.816-19.133-8.237-41.987-28.512-42.137c-23.65,0-41.667,27.75-52.659,51.041l-2.945,6.242
	l0.292-6.892c1.304-31.062,2.375-49.404,3.188-54.492c0.8-5.104,0.379-8.529-1.292-10.491c-1.583-1.838-4.566-2.517-8.941-2.242
	c-7.571,0.479-11.442,5.088-17.271,20.533c-9.574,25.367-33.929,84.384-53.375,84.384c-3.858-0.029-6.912-1.342-9.149-3.913
	c-8.154-9.346-4.892-34.62-0.379-69.591l0.341-2.646c2.138-16.558-1.504-20.092-10.5-21.745c-0.901-0.17-1.815-0.26-2.733-0.268
	c-7.183,0-10.541,6.88-17.25,25.996c-11.938,34.017-27.291,69.792-45.241,69.792c-0.658,0-1.304-0.05-1.967-0.154
	c-9.513-1.621-9.304-15.729-9.042-33.608c0.134-9.667,0.296-20.629-1.191-30.525c-2.684-17.758-13.142-28.846-27.312-28.958
	c-28.267,0-47.329,36.2-56.195,57.783l-2.009,4.884l-0.671-5.242c-1.741-13.854-2.886-27.776-3.429-41.729l-0.025-0.521l0.321-0.408
	c52.903-66.596,76.646-114.654,76.962-155.829c0.204-26.304-11.934-42.104-32.462-42.267c-15.013,0-50.705,12.504-63.108,128.321
	c-2.318,21.742-3.569,43.585-3.75,65.449l-0.009,0.434l-0.246,0.351c-24.204,35.033-75.862,95.295-126.438,95.295
	c-45.695,0-82.153-36.971-82.153-102.229c0-87.483,61.921-141.196,108.521-141.196h0.388c10.125,0.075,18.808,2.904,25.108,8.18
	c6.541,5.475,9.971,13.149,9.899,22.191c-0.092,12.079-4.029,18.287-7.833,24.283c-0.971,1.546-1.95,3.079-2.842,4.704
	c-0.9,1.642-1.721,4.021-0.525,6.059c1.226,2.088,4.354,3.4,8.167,3.429c11.092,0,27.867-16.058,28.05-40.25
	c0.191-25.32-21.137-51.412-59.191-51.412c-57.588,0-135.15,63.267-135.15,165.8c0,72.529,45.476,122.658,107.075,122.658
	c43.713,0,86.954-31.3,125.25-83.579l2.346-3.166l0.167,3.933c0.812,19.138,2.2,34.213,3.213,45.226
	c0.654,7.079,1.129,12.191,1.112,15.013c-0.05,6.179,0.954,10.479,3.092,13.112c2.129,2.638,5.512,3.883,10.646,3.916
	c8.6,0,10.325-5.862,13.729-20.329l0.979-4.129c4.233-17.529,19.867-74.746,43.38-74.746c3.841,0.038,6.804,1.171,8.908,3.4
	c5.191,5.508,4.625,16.812,3.967,29.908c-0.417,8.171-0.834,16.608-0.018,24.829c2.213,22.191,11.796,33.046,29.292,33.171
	c17.967,0.009,36.717-19.346,46.612-37.329l1.867-3.388l0.729,3.809c1.825,9.625,9.992,41.217,35.562,41.217
	c23.176,0,43.059-24.404,64.851-74.634l2.854-6.558l-0.176,7.153c-0.462,19.034-1.491,42.275-1.5,60.246
	c-0.008,13.9,1.396,19.204,7.821,19.204l1.458,0.066c6.163,0,10.346-3.679,12.434-10.954c16.4-57.153,30.571-83.771,44.612-83.771
	c13.75,0.104,15.038,25.246,16.142,69.671l0.075,3.117c0.333,15.537,0.896,22.412,10.546,22.482c7.325,0,9.146-5.754,12.934-19.92
	c0.725-2.7,1.508-5.663,2.438-8.863c13.241-45.938,24.217-64.679,37.883-64.679c11.7,0.088,12.351,12.15,12.567,16.112
	c0.45,8.487-0.425,17.375-1.267,25.954c-0.788,7.976-1.596,16.225-1.292,23.888c0.717,17.967,10.55,27.938,27.7,28.066
	c22.258,0,42.35-26.033,59.945-77.358l1.221-3.575l1.396,3.521c3.195,8.066,7.354,18.987,11.199,32.017l0.146,0.496l-0.213,0.471
	c-17.041,37.833-29.062,79.975-29.233,102.491c-0.229,29.654,13.188,48.925,34.184,49.088h0.362
	c11.421,0,38.042-4.588,38.559-47.021c0.213-17.392-3.9-41.983-12.204-73.104l-0.954-3.562l3.062,2.041
	C1916.199,646.055,1928.153,649.817,1940.178,649.917L1940.178,649.917z M1366.481,506.005c0.476-10.634,1.371-20.988,2.643-30.779
	c8.241-63.092,25.433-107.15,41.829-107.15h0.074c7.817,0.059,11.726,5.971,11.646,17.562
	c-0.226,28.487-18.275,69.271-53.642,121.217l-2.767,4.066L1366.481,506.005L1366.481,506.005z M1889.286,732.825
	c-2.608,3.476-6.242,5.237-10.792,5.237c-5.225-0.046-9.149-1.862-11.82-5.433c-7.483-9.996-5.375-33.496,6.833-76.15
	c1.463-5.1,3.042-10.221,4.717-15.233l1.416-4.254l1.246,4.304C1895.106,690.533,1897.932,721.325,1889.286,732.825z
	 M1893.711,606.68l-0.259-0.471l-0.516-1.638l0.241-0.487c16.217-33.417,34.8-52.571,50.967-52.571h0.167
	c18.258,0.138,30.883,16.571,30.708,39.941c-0.121,15.601-7,24.584-12.742,29.371c-6.554,5.467-15.283,8.592-23.949,8.592
	C1916.961,629.255,1902.294,616.959,1893.711,606.68L1893.711,606.68z M1944.145,552.917v-0.021V552.917z M859.398,644.392
	c25.033-2,44.892-36.046,52.267-50.596l1.9-3.75l0.721,4.142c3.542,20.459,14.671,54.834,49.483,55.108h0.292
	c15.058,0,32.142-9.212,49.408-26.633l1.267-1.279l0.921,1.537c11.625,19.442,27.217,29.771,43.816,28.921
	c24.438-1.271,39.271-18.587,40.575-30.616c0.333-3.067-0.476-5.954-2.229-7.9c-2.195-2.45-5.388-2.733-7.729-0.487l-1.121,1.059
	c-5.688,5.462-16.288,15.642-27.838,16.241c-14.142,0.691-24.6-7.763-31.358-25.212l-0.279-0.733l0.476-0.617
	c38.888-50.862,66.175-128.471,63.479-180.524c-1.241-24.092-8.245-52.812-34.558-52.812l-1.963,0.05
	c-10.079,0.521-19.246,5.325-27.241,14.271c-24.413,27.312-37.188,94.537-32.55,171.267c0.958,15.941,3.729,30.842,8.225,44.271
	l0.254,0.755l-0.513,0.608c-14.429,16.862-28.666,26.149-40.091,26.149c-27.488,0-26.562-46.092-24.392-84.308
	c0.471-8.242,1.166-13.492-1.271-16.476c-1.741-2.138-4.658-3.191-8.908-3.225l-0.496-0.005c-9.783,0-11.829,2.013-16.833,16.529
	c-10.412,30.158-30.967,80.771-51.642,80.771c-5.729-0.055-10.104-2.009-13.1-5.825c-10.029-12.8-2.413-44.726,3.704-70.388
	c1.1-4.612,2.154-9.042,3.058-13.142c1.338-6.083,0.93-10.521-1.221-13.208c-2.158-2.68-6.462-3.763-12.142-3.312
	c-8.854,0.708-14.517,4.416-17.254,21.254l-0.55,3.5l-2.059-2.492c-3.867-5.708-11.404-12.508-25.4-12.508
	c-1.225,0-2.495,0.05-3.808,0.154c-14.934,1.225-31.938,11.629-44.384,27.158c-14.529,18.129-21.471,41.075-19.537,64.621
	c0.1,1.245,0.279,2.441,0.458,3.629l0.1,0.654l-0.449,0.496c-8.692,9.466-17.551,14.274-26.325,14.274
	c-13.546-0.1-21.316-10.167-21.316-26.938c0-28.225,19.129-113.32,19.129-144.125c0-32.783-14.608-50.629-39.976-50.825h-0.383
	c-37.042,0-65.908,42.029-93.533,128.505c-2.624,8.301-5.172,16.626-7.642,24.975l-3.88,13.004l1.146-13.517
	c2.499-28.987,4.245-58.034,5.237-87.112c1.375-41.792-4.271-68.688-17.275-82.221c-7.012-7.3-16.287-10.896-28.37-10.987h-0.309
	c-45.325,0-67.037,76.441-82.85,130.379c-4.771,16.283-14.176,53.013-20.455,78.121l3.722-6.046
	c2.787-31.617,10.866-110.812,10.337-153.779c-0.575-46.092-15.916-66.754-49.771-67.013h-0.417
	c-18.083,0-30.629,8.987-37.966,16.525c-11.784,12.1-19.125,29.783-18.717,45.054c0.25,9.283,5.946,17.546,10.263,17.546
	c2.812,0,4.371-3.754,5.045-5.991c10.475-34.621,24.029-51.454,41.421-51.454c7.212,0.054,12.583,2.179,16.6,6.5
	c13.591,14.579,11.117,53.945,6.637,125.416c-1.449,23.033-3.083,49.13-4.462,78.817c-0.241,4.898-0.527,9.794-0.858,14.688
	c-1.321,20.612-2.371,36.903,5.45,38.116c10.175,1.588,16.796-2.546,20.188-12.612c5.024-14.941,16.296-55.779,38.104-130.4
	c20.925-71.608,36.733-97.662,56.959-97.662c23.366,0,25.108,40.121,20.824,124.787c-0.912,17.95-2.133,38.279-3.07,60.4
	c-0.129,3.108-0.275,6.125-0.425,9.024c-0.9,18.321-1.608,32.768,3.625,38.309c1.633,1.726,3.85,2.579,6.787,2.596
	c10.129,0,13.175-8.879,18.221-23.6c0.892-2.596,1.838-5.371,2.892-8.271c34.709-95.746,60.371-178.817,94.817-178.817
	c10.329,0,18.37,8.392,18.37,24.759c0,37.779-18.475,110.774-18.475,147.792c0,13.262,3.816,25.162,11.025,33.528
	c7.399,8.592,17.754,13.167,29.941,13.271h0.267c11.524,0,23.529-5.601,35.695-16.642l1.142-1.033l0.917,1.237
	c8.013,10.767,20.938,16.554,34.896,15.479c21.409-1.666,39.371-20.729,46.055-38.704l1.309-3.517l1.304,3.517
	C825.703,630.18,836.444,646.255,859.398,644.392L859.398,644.392z M1056.665,394.217l0.367-0.008c2.445,0,4.596,1.225,6.379,3.649
	c8.5,11.492,8.629,53.438-5.992,101.163c-8.354,27.274-19.591,53.041-32.482,74.504l-2.059,3.417l-0.525-3.954
	c-1.517-11.542-2.267-23.559-2.791-33.784C1015.832,467.067,1037.652,395.204,1056.665,394.217L1056.665,394.217z M819.132,562.812
	c-7.491,30.146-21.858,66.538-47.763,68.621l-2.108,0.088c-10.745,0-16.771-7.033-17.908-20.917
	c-1.425-17.366,6.062-37.704,19.071-51.825c8.279-8.991,17.621-13.941,26.3-13.941h0.175c10.954,0.083,18.634,8.879,22.163,17.083
	l0.188,0.425L819.132,562.812L819.132,562.812z M939.277,452.292c-9.562,0-17.283,7.533-17.358,16.796
	c-0.074,9.329,7.601,16.979,17.101,17.05l0.138,1.388v-1.388c9.425,0,17.142-7.529,17.217-16.787
	C956.448,460.017,948.778,452.367,939.277,452.292L939.277,452.292z M1540.499,452.292c-9.562,0-17.279,7.533-17.358,16.796
	c-0.075,9.329,7.596,16.979,17.1,17.05l0.134,1.388v-1.388c9.433,0,17.149-7.529,17.225-16.787
	C1557.665,460.017,1549.999,452.367,1540.499,452.292L1540.499,452.292z"/>
<path fill="#020202" d="M2008.694,630.817c-6.483,0.011-11.734,5.267-11.741,11.75c0.014,6.477,5.265,11.722,11.741,11.729
	c6.478-0.007,11.729-5.251,11.746-11.729C2020.436,636.081,2015.181,630.824,2008.694,630.817z M2008.694,652.601
	c-5.559,0-10.037-4.471-10.037-10.029s4.479-10.042,10.037-10.042c5.555,0,10.042,4.483,10.042,10.042
	S2014.249,652.601,2008.694,652.601z M2013.898,639.5c0-2.425-1.191-3.75-4.259-3.75h-5.208v13.533h1.704v-5.925h2.434l4.042,5.925
	h1.925l-4.042-5.925C2012.328,643.038,2013.898,641.996,2013.898,639.5z M2008.319,641.834h-2.175v-4.579h3.029
	c1.454,0,3.037,0.504,3.037,2.237C2012.198,641.746,2010.182,641.834,2008.319,641.834z"/>
</svg>
