<?xml version="1.0" encoding="utf-8"?>
<!-- Generator: Adobe Illustrator 16.0.0, SVG Export Plug-In . SVG Version: 6.00 Build 0)  -->
<!DOCTYPE svg PUBLIC "-//W3C//DTD SVG 1.1//EN" "http://www.w3.org/Graphics/SVG/1.1/DTD/svg11.dtd">
<svg version="1.1" id="Layer_1" xmlns="http://www.w3.org/2000/svg" xmlns:xlink="http://www.w3.org/1999/xlink" x="0px" y="0px"
	 width="2498.866px" height="919.186px" viewBox="41.533 0 2498.866 919.186" enable-background="new 41.533 0 2498.866 919.186"
	 xml:space="preserve">
<g>
	<path fill="#EA1B22" d="M1120.31,211.345h165.121l-87.309-140.469l-160.244,253.972h-72.927l194.907-305.076
		C1168.331,7.448,1182.455,0,1198.122,0c15.149,0,29.273,7.189,37.493,19.259l195.678,305.589h-72.926l-34.408-56.752h-167.175
		l-36.469-56.751H1120.31z M1877.862,268.092V3.08h-61.886v290.952c0,7.961,3.08,15.667,8.985,21.572
		c5.905,5.906,13.865,9.244,22.597,9.244h282.221l36.468-56.752h-288.39L1877.862,268.092z M854.01,220.584
		c60.095,0,108.887-48.533,108.887-108.623c0-60.095-48.792-108.886-108.887-108.886H583.269v321.778h61.866V59.836h204.771
		c28.762,0,51.871,23.374,51.871,52.135c0,28.756-23.109,52.125-51.871,52.125l-174.467-0.254l184.735,161.011h89.881
		L825.766,220.594h28.249L854.01,220.584z M202.446,324.848c-88.827,0.005-160.913-71.9-160.913-160.752
		c0-88.856,72.086-161.011,160.913-161.011H389.47c88.847,0,160.879,72.155,160.879,161.011
		c0,88.852-72.032,160.752-160.884,160.752H202.446L202.446,324.848z M385.312,268.096c57.547,0,104.157-46.482,104.157-104.005
		c0-57.518-46.61-104.255-104.157-104.255H206.584c-57.527,0-104.162,46.737-104.162,104.26c0,57.518,46.634,104,104.157,104
		h178.728H385.312z M1560.463,324.848c-88.847,0-161.011-71.9-161.011-160.752c0-88.856,72.164-161.011,161.011-161.011h222.136
		l-36.215,56.751h-181.812c-57.522,0-104.26,46.737-104.26,104.26c0,57.518,46.737,104,104.26,104h223.155l-36.468,56.752H1560.463
		L1560.463,324.848z M2317.248,268.096c-47.508,0-87.826-31.841-100.149-75.756h264.499l36.463-56.752h-300.962
		c12.323-43.657,52.642-75.752,100.149-75.752h181.559l36.712-56.761h-222.385c-88.852,0-161.011,72.16-161.011,161.011
		c0,88.855,72.159,160.757,161.011,160.757h190.802l36.463-56.747h-223.155H2317.248z"/>
	<g>
		<path d="M559.119,759.507h42.801l36.232,95.486h64.191L657.882,747.98c25.556-10.047,41.64-35.676,41.156-64.246
			c0.484-23.163-10.568-47.019-31.238-60.903c-18.221-11.415-40.316-11.8-62.593-11.507H503.129v243.669h55.989V759.507z
			 M559.119,654.123h31.256c10.046,0.402,26.469-1.005,36.27,4.933c7.974,5.114,13.692,15.453,13.135,24.679
			c0.557,11.107-4.44,22.505-13.135,27.987c-10.905,6.265-23.739,5.206-36.27,4.969h-31.256V654.123z"/>
		<path d="M875.227,774.286c0.373-24.936-3.555-50.601-18.085-70.788c-15.399-21.171-41.411-32.515-67.488-32.897
			c-55.562,0.383-87.3,43.494-87.3,97.109c0,53.707,35.272,91.429,88.906,92.213c61.881-0.784,82.926-54.255,82.323-62.564
			l-47.761-4.896c-0.11,17.482-16.158,29.285-32.918,29.596c-22.113-0.311-34.233-17.774-34.589-39.514v-8.258H875.227z
			 M758.315,742.994c2.119-20.734,11.042-37.869,34.589-37.869c22.47,0,28.88,18.215,29.63,37.869H758.315z"/>
		<path d="M998.677,728.179c-4.055-16.622-17.563-23.765-34.543-23.033c-10.796-0.731-27.182,2.155-27.967,14.813
			c0.786,34.38,109.503-4.129,110.307,77.399c-0.804,19.018-9.783,35.75-24.726,46.124c-16.758,12.111-36.708,15.656-55.916,16.44
			c-38.534-0.784-73.846-13.628-84.002-54.347L927.937,799c3.307,18.833,22.898,24.5,39.485,24.664
			c10.157-0.164,31.894-3.729,31.255-18.088c0.639-11.322-10.037-13.425-19.728-14.814c-12.422-1.094-42.354-6.426-54.292-9.879
			c-20.89-7.986-35.127-26.544-34.58-49.378c-0.547-44.534,38.271-60.538,77.344-60.904c35.092,0.366,58.237,13.866,70.823,47.715
			L998.677,728.179z"/>
		<path d="M1062.915,673.854v242.058h52.709v-80.687h1.608c6.833,16.388,23.236,23.914,41.21,24.698
			c52.584-0.784,69.005-49.979,69.152-93.893c-0.146-22.743-2.256-44.463-13.198-64.174c-12.596-20.241-29.712-30.873-54.327-31.256
			c-22.797,0.383-37.074,10.722-46.107,31.256h-1.69v-28.003H1062.915z M1115.624,754.52c0.247-11.232,0.247-22.25,4.906-31.252
			c5.342-9.519,13.874-15.236,24.725-14.817c25.867-0.419,27.291,37.012,27.985,55.972c-0.695,18.122-1.781,57.654-29.666,57.636
			c-8.477,0.019-17.702-5.682-23.044-13.192c-5.727-10.34-4.659-25.629-4.906-37.866V754.52z"/>
		<path d="M1323.042,670.582c-54.602,0.401-85.228,41.339-85.565,93.84c0.337,52.646,30.588,94.717,85.565,95.481
			c54.134-0.765,88.002-41.755,87.273-93.854C1411.044,713,1380.392,670.983,1323.042,670.582 M1324.723,705.146
			c11.489,0.329,20.01,5.005,24.689,16.476c4.583,13.831,5.259,30.964,4.929,44.428c0.33,22.524-1.058,58.197-31.299,57.63
			c-29.256,0.567-28.937-43.673-29.648-64.189C1294.105,738.683,1295.896,705.475,1324.723,705.146"/>
		<path d="M1481.154,673.854v31.292c11.144-23.183,26.122-34.179,52.666-34.545c16.932,0.366,33.736,5.682,44.425,19.747
			c9.957,14.066,9.957,36.864,9.918,52.646v111.999h-52.719v-97.128c0.366-18.159,2.887-45.23-23.018-44.446
			c-9.79-0.784-18.32,4.584-23.052,13.098c-4.933,9.993-5.608,20.351-4.969,31.349v97.128h-52.7v-181.14H1481.154z"/>
		<path d="M1719.836,728.179c-5.041-16.622-18.636-23.765-36.172-23.033c-10.247-0.731-26.688,2.155-26.374,14.813
			c-0.314,34.38,108.471-4.129,108.635,77.399c-0.164,19.018-9.1,35.75-24.679,46.124c-16.15,12.111-36.08,15.656-55.974,16.44
			c-37.886-0.784-73.176-13.628-82.348-54.347l44.501-6.576c3.854,18.833,23.487,24.5,39.454,24.664
			c10.78-0.164,32.515-3.729,32.956-18.088c-0.441-11.322-11.144-13.425-21.372-14.814c-11.854-1.094-41.832-6.426-52.719-9.879
			c-21.924-7.986-36.133-26.544-36.225-49.378c0.092-44.534,38.927-60.538,77.359-60.904c35.771,0.366,58.895,13.866,70.842,47.715
			L1719.836,728.179z"/>
		<path d="M1867.983,843.482c-13.114,41.687-20.277,75.188-72.41,75.703l-24.68-3.274v-41.174l26.321,3.288
			c17.338,0.039,24.151-5.332,28.021-23.032l-65.867-181.14h57.615l34.598,108.671l32.917-108.671h39.494L1867.983,843.482z"/>
		<path d="M2032.646,728.179c-4.164-16.622-17.739-23.765-34.524-23.033c-10.998-0.731-27.439,2.155-28.021,14.813
			c0.581,34.38,109.308-4.129,108.669,77.399c0.639,19.018-8.238,35.75-23.032,46.124c-16.917,12.111-36.903,15.656-57.616,16.44
			c-37.01-0.784-72.304-13.628-82.313-54.347l46.051-6.576c3.123,18.833,22.761,24.5,39.552,24.664
			c9.937-0.164,31.672-3.729,31.235-18.088c0.437-11.322-10.267-13.425-19.729-14.814c-12.621-1.094-42.546-6.426-54.328-9.879
			c-21.042-7.986-35.29-26.544-34.597-49.378c-0.693-44.534,38.181-60.538,77.418-60.904c34.927,0.366,58.09,13.866,70.802,47.715
			L2032.646,728.179z"/>
		<path d="M2103.434,690.495h2.572c3.215,0,5.7-1.041,5.7-3.729c0-2.135-1.57-3.779-5.279-3.779c-1.332,0-2.281,0-2.993,0.109
			V690.495z M2103.434,705.31h-5.429V679.57c2.049-0.311,4.311-0.712,8.224-0.712c4.416,0,7.085,0.712,8.856,2.082
			c1.424,1.095,2.248,2.867,2.248,5.516c0,3.104-2.155,5.245-4.93,5.991v0.203c2.261,0.402,3.69,2.465,4.105,6.281
			c0.533,3.985,1.062,5.536,1.444,6.378h-5.661c-0.586-0.948-1.042-3.216-1.536-6.688c-0.421-2.775-2.044-3.928-4.857-3.928h-2.465
			V705.31z M2107.361,673.304c-9.686,0-17.501,8.312-17.501,18.615c0,10.393,7.815,18.524,17.589,18.524
			c9.812,0.106,17.72-8.132,17.72-18.524c0-10.304-7.908-18.615-17.72-18.615H2107.361z M2107.541,668.664
			c12.79,0,22.999,10.395,22.999,23.144c0,12.989-10.209,23.256-23.091,23.256c-12.731,0-23.146-10.267-23.146-23.256
			c0-12.749,10.414-23.144,23.146-23.144H2107.541z"/>
	</g>
	<rect x="78.965" y="472" width="2424" height="28"/>
</g>
</svg>
