<?xml version="1.0" encoding="utf-8"?>
<!-- Generator: Adobe Illustrator 16.0.0, SVG Export Plug-In . SVG Version: 6.00 Build 0)  -->
<!DOCTYPE svg PUBLIC "-//W3C//DTD SVG 1.1//EN" "http://www.w3.org/Graphics/SVG/1.1/DTD/svg11.dtd">
<svg version="1.1" id="Layer_1" xmlns="http://www.w3.org/2000/svg" xmlns:xlink="http://www.w3.org/1999/xlink" x="0px" y="0px"
	 width="2500px" height="1309px" viewBox="0 0 2500 1309" enable-background="new 0 0 2500 1309" xml:space="preserve">
<g>
	<ellipse fill="#8993BE" cx="1250" cy="650.684" rx="1250" ry="650.684"/>
	<path fill="#232531" d="M804.785,342.461H488.018l-136.992,693.496h162.676l34.248-179.795h154.092
		c145.557,8.564,308.223-111.299,308.223-316.777C1010.264,419.512,941.768,351.025,804.785,342.461z M684.932,727.744H582.197
		h-0.01L625,470.889h111.299c59.932,0,102.734,25.684,102.734,77.051C830.479,693.496,761.982,719.18,684.932,727.744z"/>
	<path fill="#232531" d="M978.438,856.162l136.982-693.486h162.676l-34.248,179.785h154.102
		c136.992,8.564,188.359,77.051,171.24,162.676l-59.932,351.025h-171.23l59.932-316.777c8.555-42.812,8.555-68.496-51.367-68.496
		h-128.428l-77.051,385.273H978.438z"/>
	<path fill="#232531" d="M1952.051,342.461h-316.777l-136.982,693.496h162.666l34.248-179.795h154.111
		c145.547,8.564,308.223-111.299,308.223-316.777C2157.539,419.512,2089.043,351.025,1952.051,342.461z M1832.197,727.744h-102.744
		h-0.01l42.812-256.855h111.309c59.932,0,102.734,25.684,102.734,77.051C1977.744,693.496,1909.248,719.18,1832.197,727.744z"/>
</g>
</svg>
