<?xml version="1.0" encoding="utf-8"?>
<!-- Generator: Adobe Illustrator 16.0.0, SVG Export Plug-In . SVG Version: 6.00 Build 0)  -->
<!DOCTYPE svg PUBLIC "-//W3C//DTD SVG 1.1//EN" "http://www.w3.org/Graphics/SVG/1.1/DTD/svg11.dtd">
<svg version="1.1" id="Layer_1" xmlns="http://www.w3.org/2000/svg" xmlns:xlink="http://www.w3.org/1999/xlink" x="0px" y="0px"
	 width="2206.508px" height="1963.168px" viewBox="0 0 2206.508 1963.168" enable-background="new 0 0 2206.508 1963.168"
	 xml:space="preserve">
<path fill="#53C1DE" d="M1814.199,636.297c-23.484-8.058-47.172-15.521-71.031-22.382c3.957-16.079,7.615-32.23,10.977-48.445
	c53.766-261.005,18.611-471.27-101.441-540.485c-115.104-66.384-303.355,2.832-493.484,168.284
	c-18.734,16.34-37.055,33.151-54.939,50.418c-11.979-11.48-24.166-22.739-36.561-33.769
	C868.458,32.992,668.73-41.556,548.804,27.865c-114.995,66.569-149.058,264.247-100.65,511.6
	c4.816,24.495,10.254,48.864,16.31,73.083c-28.262,8.026-55.556,16.581-81.667,25.683C149.191,719.672,0,847.323,0,979.72
	c0,136.752,160.149,273.914,403.479,357.075c19.729,6.712,39.625,12.931,59.666,18.65c-6.511,26.093-12.291,52.361-17.334,78.776
	c-46.15,243.057-10.106,436.046,104.586,502.206c118.462,68.307,317.281-1.904,510.886-171.136
	c15.303-13.379,30.664-27.567,46.043-42.439c19.373,18.69,39.264,36.839,59.646,54.421
	c187.531,161.371,372.738,226.534,487.334,160.199c118.354-68.514,156.809-275.839,106.869-528.084
	c-3.809-19.267-8.252-38.942-13.23-58.98c13.963-4.121,27.664-8.379,41.033-12.812c252.957-83.805,417.531-219.298,417.531-357.876
	C2206.505,846.845,2052.509,718.335,1814.199,636.297z M1221.097,264.379c162.904-141.771,315.154-197.746,384.527-157.738
	c73.883,42.615,102.623,214.454,56.197,439.806c-3.043,14.681-6.35,29.305-9.922,43.865
	c-91.539-21.122-190.949-36.845-295.025-46.608c-60.633-86.335-123.451-164.837-186.516-232.783
	C1186.884,294.987,1203.802,279.47,1221.097,264.379z M651.504,1092.82c19.953,38.544,40.812,76.612,62.556,114.176
	c22.187,38.316,45.285,76.099,69.273,113.315c-72.263-8.066-140.413-18.994-203.351-32.693
	C599.464,1224.711,623.467,1159.321,651.504,1092.82z M651.396,871.131c-27.45-65.104-50.936-129.116-70.114-190.93
	c62.956-14.092,130.092-25.604,200.04-34.346c-23.414,36.522-45.969,73.589-67.644,111.169
	C692.031,794.569,671.266,832.616,651.396,871.131z M701.501,981.984c29.043-60.45,60.35-119.786,93.854-177.883v0.021
	c33.493-58.109,69.182-114.927,106.987-170.325c65.623-4.961,132.906-7.56,200.919-7.56c68.316,0,135.688,2.617,201.291,7.617
	c37.424,55.314,72.883,111.934,106.312,169.749c33.619,57.967,65.344,117.013,95.123,177.043
	c-29.473,60.642-61.098,120.215-94.811,178.605h-0.008v0.001c-33.426,58.063-68.73,115.024-105.855,170.794
	c-65.467,4.678-133.119,7.09-202.062,7.09c-68.658,0-135.453-2.14-199.777-6.31c-38.09-55.639-74.062-112.697-107.837-171.058
	C762.02,1101.721,730.617,1042.416,701.501,981.984z M1492.826,1206.342c22.195-38.49,43.529-77.47,63.99-116.909
	c29.492,67.225,54.355,132.26,74.1,194.104c-63.98,14.6-133.051,26.355-205.83,35.087
	C1448.406,1281.647,1470.992,1244.215,1492.826,1206.342z M1555.917,871.198c-20.391-38.691-41.553-76.972-63.473-114.818
	c-21.57-37.26-43.941-74.051-67.098-110.349c70.408,8.888,137.855,20.703,201.191,35.165
	C1607.527,742.141,1583.826,805.87,1555.917,871.198z M1104.306,378.329c43.475,47.098,87.018,99.692,129.848,156.751
	c-86.881-4.105-173.906-4.125-260.789-0.06C1016.234,478.491,1060.148,425.974,1104.306,378.329z M596.026,109.444
	c73.825-42.733,237.051,18.202,409.094,170.958c10.996,9.767,22.041,19.989,33.105,30.565
	c-64.1,68.835-127.446,147.2-187.961,232.607c-103.774,9.617-203.116,25.066-294.44,45.76c-5.626-22.531-10.683-45.2-15.165-67.985
	v0.011h-0.001C499.185,309.426,526.723,149.56,596.026,109.444z M488.433,1264.649c-18.293-5.236-36.455-10.921-54.47-17.05
	c-107.594-36.776-196.447-84.567-257.354-136.714c-54.724-46.873-82.36-93.404-82.36-131.166
	c0-80.338,119.79-182.824,319.577-252.479c25.076-8.705,50.401-16.674,75.944-23.896c27.616,89.811,63.835,183.713,107.544,278.67
	C553.039,1078.388,516.303,1173.785,488.433,1264.649z M999.253,1694.31c-85.612,74.84-171.4,127.924-247.002,154.632h-0.01
	c-67.938,23.993-122.046,24.677-154.75,5.82c-69.605-40.136-98.53-195.109-59.068-402.962c4.691-24.564,10.064-48.993,16.111-73.26
	c90.377,19.989,190.422,34.375,297.352,43.046c61.043,85.904,124.975,164.865,189.407,234.014
	C1027.599,1668.846,1013.582,1681.753,999.253,1694.31z M1106.914,1587.771c-44.676-48.211-89.234-101.529-132.758-158.88
	c42.244,1.66,85.318,2.5,129.098,2.5c44.979,0,89.438-1.006,133.195-2.959C1193.482,1486.827,1150.095,1540.224,1106.914,1587.771z
	 M1679.312,1718.919c-13.145,70.837-39.568,118.062-72.244,136.977c-69.537,40.252-218.252-12.069-378.617-150.072
	c-18.387-15.818-36.912-32.713-55.484-50.582c62.176-68.007,124.311-147.064,184.953-234.854
	c106.676-9.463,207.451-24.941,298.846-46.062c4.49,18.161,8.494,35.963,11.941,53.375
	C1690.787,1539.237,1693.939,1640.084,1679.312,1718.919z M1759.337,1248.127h-0.01c-12.061,3.993-24.441,7.851-37.059,11.591
	c-27.93-88.404-65.623-182.414-111.734-279.529c44.014-94.819,80.242-187.619,107.389-275.457
	c22.566,6.543,44.48,13.428,65.594,20.702c204.189,70.28,328.736,174.212,328.736,254.286
	C2112.253,1065.019,1977.736,1175.757,1759.337,1248.127z"/>
<path fill="#53C1DE" d="M1103.251,782.688c108.822,0,197.031,88.219,197.031,197.032c0,108.824-88.209,197.043-197.031,197.043
	c-108.814,0-197.033-88.219-197.033-197.043C906.219,870.906,994.437,782.688,1103.251,782.688"/>
</svg>
