<?xml version="1.0" encoding="utf-8"?>
<!-- Generator: Adobe Illustrator 16.0.0, SVG Export Plug-In . SVG Version: 6.00 Build 0)  -->
<!DOCTYPE svg PUBLIC "-//W3C//DTD SVG 1.1//EN" "http://www.w3.org/Graphics/SVG/1.1/DTD/svg11.dtd">
<svg version="1.1" id="Layer_1" xmlns="http://www.w3.org/2000/svg" xmlns:xlink="http://www.w3.org/1999/xlink" x="0px" y="0px"
	 width="226.319px" height="214.848px" viewBox="69.113 39.304 226.319 214.848"
	 enable-background="new 69.113 39.304 226.319 214.848" xml:space="preserve">
<g>
	<path fill="#764ABC" d="M225.928,189.352c8.352-0.863,14.688-8.063,14.4-16.703c-0.288-8.641-7.488-15.553-16.128-15.553h-0.576
		c-8.929,0.288-15.84,7.776-15.552,16.704c0.287,4.32,2.016,8.064,4.607,10.656c-9.791,19.296-24.768,33.408-47.231,45.216
		c-15.264,8.064-31.104,10.944-46.944,8.928c-12.96-1.728-23.04-7.488-29.376-16.992c-9.216-14.111-10.08-29.375-2.304-44.64
		c5.472-10.944,14.112-19.008,19.584-23.04c-1.152-3.744-2.88-10.08-3.744-14.688c-41.76,30.24-37.44,71.136-24.768,90.432
		c9.504,14.4,28.8,23.328,50.112,23.328c5.76,0,11.52-0.576,17.28-2.016C182.152,243.784,210.088,221.896,225.928,189.352z"/>
	<path fill="#764ABC" d="M276.616,153.641c-21.888-25.633-54.144-39.745-91.009-39.745H181c-2.592-5.184-8.064-8.64-14.112-8.64
		h-0.576c-8.928,0.288-15.84,7.776-15.552,16.704c0.288,8.64,7.488,15.552,16.128,15.552h0.576
		c6.336-0.288,11.808-4.32,14.112-9.792h5.184c21.889,0,42.624,6.336,61.344,18.719c14.4,9.504,24.769,21.889,30.528,36.865
		c4.896,12.096,4.608,23.903-0.575,33.983c-8.064,15.265-21.601,23.616-39.457,23.616c-11.52,0-22.463-3.456-28.224-6.049
		c-3.168,2.881-8.928,7.488-12.96,10.369c12.384,5.76,25.057,8.928,37.152,8.928c27.647,0,48.096-15.264,55.871-30.528
		C298.792,206.92,298.216,178.12,276.616,153.641L276.616,153.641z"/>
	<path fill="#764ABC" d="M130.312,194.248c0.288,8.641,7.488,15.552,16.128,15.552h0.576c8.928-0.288,15.84-7.776,15.552-16.704
		c-0.288-8.64-7.488-15.552-16.128-15.552h-0.576c-0.576,0-1.44,0-2.016,0.288c-11.808-19.584-16.704-40.896-14.976-63.936
		c1.152-17.28,6.912-32.256,16.992-44.64c8.352-10.656,24.48-15.84,35.424-16.128c30.528-0.576,43.487,37.44,44.353,52.704
		c3.743,0.864,10.08,2.88,14.399,4.32c-3.456-46.656-32.256-70.848-59.904-70.848c-25.92,0-49.824,18.72-59.328,46.368
		c-13.248,36.864-4.608,72.288,11.52,100.225C130.888,187.912,130.024,191.08,130.312,194.248L130.312,194.248z"/>
</g>
</svg>
