<?xml version="1.0" encoding="utf-8"?>
<!-- Generator: Adobe Illustrator 16.0.0, SVG Export Plug-In . SVG Version: 6.00 Build 0)  -->
<!DOCTYPE svg PUBLIC "-//W3C//DTD SVG 1.1//EN" "http://www.w3.org/Graphics/SVG/1.1/DTD/svg11.dtd">
<svg version="1.1" id="Layer_1" xmlns="http://www.w3.org/2000/svg" xmlns:xlink="http://www.w3.org/1999/xlink" x="0px" y="0px"
	 width="218.256px" height="136.061px" viewBox="70.872 51.764 218.256 136.061"
	 enable-background="new 70.872 51.764 218.256 136.061" xml:space="preserve">
<g>
	<path fill="#010101" d="M181.008,96.54c0-1.968-1.2-3.732-3.024-4.464L77.448,52.104c-1.476-0.588-3.156-0.408-4.464,0.492
		c-1.32,0.888-2.112,2.376-2.112,3.972v22.764c0,1.968,1.2,3.732,3.024,4.452l61.428,24.432L73.896,132.66
		c-1.824,0.732-3.024,2.496-3.024,4.464v22.752c0,1.584,0.792,3.084,2.112,3.972c0.804,0.541,1.74,0.828,2.688,0.828
		c0.6,0,1.2-0.107,1.776-0.336l100.548-39.972c1.824-0.732,3.023-2.496,3.023-4.464V96.54H181.008z"/>
	<path fill="#010101" d="M284.328,168.336h-98.952c-2.651,0-4.8,2.137-4.8,4.8v9.888c0,2.664,2.148,4.801,4.8,4.801h98.952
		c2.652,0,4.8-2.137,4.8-4.801v-9.888C289.128,170.484,286.98,168.336,284.328,168.336z"/>
</g>
</svg>
